<svg class="site-logo" xmlns="http://www.w3.org/2000/svg" xmlns:xlink="http://www.w3.org/1999/xlink" viewBox="33 33 400 87">
    <style>
      svg path.hoverfill {
        fill: #000000;
        fill-opacity: 0;
      }
    </style>
    <title>
      The Pennsylvania State University - Eberly College of Science
    </title>
    <path fill="#FFFFFF" d="M413.8 89.4c0-1.6-.6-4-3.5-4-2.5 0-3.6 2.3-3.8 4h7.3zm-9.6 1.5c0-4.1 2.4-7.4 6.4-7.4 4.5 0 5.6 3.9 5.6 6.4 0 .5-.1.9-.1 1.2h-9.6c.1 3.4 2.2 4.7 4.7 4.7 1.8 0 2.9-.3 3.8-.7l.4 1.8c-.9.4-2.4.9-4.5.9-4.2 0-6.7-2.7-6.7-6.9zM398.9 95.9c1.4 0 2.3-.4 3.1-.7l.4 1.9c-.6.3-2.1.8-3.9.8-4.1 0-6.8-2.8-6.8-7s2.9-7.3 7.4-7.3c1.5 0 2.8.4 3.4.7l-.6 1.9c-.6-.3-1.5-.6-2.9-.6-3.1 0-4.8 2.3-4.8 5.2 0 3.1 2 5.1 4.7 5.1zM383.8 83.6c1.9 0 4.8 1.1 4.8 5.8v8.2h-2.5v-7.9c0-2.2-.8-4-3.2-4-1.6 0-2.9 1.2-3.3 2.6-.1.3-.2.7-.2 1.2v8.2H377v-10c0-1.4 0-2.6-.1-3.7h2.2l.1 2.3h.1c.7-1.5 2.3-2.7 4.5-2.7zM368.3 83.6c4.5 0 5.6 3.9 5.6 6.4 0 .5-.1.9-.1 1.2h-9.6c.1 3.4 2.2 4.7 4.7 4.7 1.8 0 2.9-.3 3.8-.7l.4 1.8c-.9.4-2.4.9-4.6.9-4.2 0-6.7-2.8-6.7-6.9.1-4.2 2.5-7.4 6.5-7.4zm3.2 5.8c0-1.6-.6-4-3.4-4-2.5 0-3.6 2.3-3.8 4h7.2zM359 80c0 .8-.6 1.5-1.6 1.5-.9 0-1.5-.7-1.5-1.5 0-.9.6-1.6 1.6-1.6.9.1 1.5.8 1.5 1.6zM356.3 83.9h2.5v13.7h-2.5zM349.9 95.9c1.4 0 2.4-.4 3.1-.7l.4 1.9c-.6.3-2.1.8-3.9.8-4.1 0-6.8-2.8-6.8-7s2.9-7.3 7.3-7.3c1.5 0 2.8.4 3.4.7l-.6 1.9c-.6-.3-1.5-.6-2.9-.6-3.1 0-4.8 2.3-4.8 5.2 0 3.1 2.1 5.1 4.8 5.1zM340.2 92.4c0 2.9-2.2 5.5-6.7 5.5-1.8 0-3.8-.5-4.9-1.2l.6-2.1c1.1.7 2.7 1.2 4.4 1.2 2.5 0 4-1.3 4-3.2 0-1.8-1-2.8-3.6-3.8-3.1-1.1-5-2.7-5-5.4 0-3 2.5-5.2 6.1-5.2 2 0 3.4.4 4.2.9l-.7 2c-.6-.3-1.9-.9-3.6-.9-2.6 0-3.6 1.6-3.6 2.8 0 1.8 1.2 2.7 3.8 3.7 3.3 1.3 5 2.9 5 5.7zM320.5 77.2c.9 0 1.6.2 2.1.4l-.3 1.9c-.4-.2-.9-.3-1.6-.3-2.1 0-2.6 1.9-2.6 4v.7h3.3v1.9H318v11.8h-2.5V85.8h-1.9v-1.9h1.9v-.7c0-1.9.4-3.7 1.6-4.8 1-.8 2.2-1.2 3.4-1.2zM309.6 90.7c0-2.3-1.1-5.2-4.1-5.2s-4.2 2.7-4.2 5.3c0 3 1.7 5.3 4.2 5.3 2.3-.1 4.1-2.3 4.1-5.4zm-4-7.1c3.9 0 6.6 2.8 6.6 7 0 5.1-3.5 7.3-6.8 7.3-3.7 0-6.5-2.7-6.5-7-.1-4.6 2.9-7.3 6.7-7.3zM295.2 58.1h-12.4c.1 2.8 2.3 4.6 5.6 4.6 2.9 0 4.8-.8 5.5-1.1v3.7c-.7.3-2.7 1.1-6.6 1.1-6.9 0-9.8-4.3-9.8-9.2 0-5.6 3.4-9.4 9-9.4 6.2-.1 8.7 4.5 8.7 10.3zm-12.4-3.3h7.3c0-2.5-1.4-3.9-3.6-3.9-2.3.1-3.5 1.5-3.7 3.9zM287.7 89.4c0-1.6-.6-4-3.4-4-2.5 0-3.6 2.3-3.8 4h7.2zm-9.7 1.5c0-4.1 2.4-7.4 6.4-7.4 4.5 0 5.6 3.9 5.6 6.4 0 .5-.1.9-.1 1.2h-9.6c0 3.4 2.2 4.7 4.7 4.7 1.8 0 2.9-.3 3.8-.7l.4 1.8c-.9.4-2.4.9-4.5.9-4.2 0-6.7-2.7-6.7-6.9zM276.5 62.4v3.4c-.4.1-2.1.6-3.9.6-3.5 0-5.8-1.9-5.8-5v-9.7h-2.4v-3.5h2.4v-3.8h4.8v3.8h4.8v3.5h-4.8v7.9c0 2.4.8 3.1 2.8 3.1.8 0 1.8-.2 2.1-.3zM268.4 83.6c2.4 0 3.7 1.2 4.3 2.4h.1l.1-2.1h2.2c-.1 1-.1 2.1-.1 3.8v7.9c0 3.1-.6 5.1-2 6.2-1.3 1.2-3.2 1.6-5 1.6-1.6 0-3.4-.4-4.5-1.1l.6-1.9c.9.6 2.3 1.1 4 1.1 2.5 0 4.4-1.3 4.4-4.8v-1.5h-.1c-.8 1.3-2.2 2.3-4.3 2.3-3.4 0-5.8-2.9-5.8-6.7-.1-4.6 3-7.2 6.1-7.2zm.4 1.9c-2.4 0-4.1 2-4.1 5.2 0 2.7 1.4 4.9 4 4.9 1.5 0 2.9-1 3.5-2.5.1-.4.2-.9.2-1.3v-2.4c0-.4 0-.8-.1-1.1-.5-1.6-1.7-2.8-3.5-2.8zM253.5 62.9c1.9 0 3.8-1.5 3.8-4.5H256c-3.9 0-5.1.8-5.1 2.3-.1 1.1.7 2.2 2.6 2.2zm4.2.6c-.4.5-1.6 2.8-5.7 2.8-4 0-6-2.4-6-5.2 0-3.4 2.6-5.7 9.1-5.7h2.1v-.8c0-2.5-1.2-3.4-3.6-3.4-1.5 0-2.6.4-3 .5v2.4h-3.9v-4.5c.6-.4 3.5-1.8 6.8-1.8 5 0 8.2 2 8.2 7v7.7h1.8V66h-5.8v-2.5zM257.7 89.4c0-1.6-.7-4-3.4-4-2.5 0-3.6 2.3-3.8 4h7.2zm-3.2-5.8c4.5 0 5.6 3.9 5.6 6.4 0 .5-.1.9-.1 1.2h-9.6c.1 3.4 2.2 4.7 4.7 4.7 1.8 0 2.8-.3 3.8-.7l.4 1.8c-.9.4-2.4.9-4.5.9-4.2 0-6.7-2.8-6.7-6.9 0-4.2 2.4-7.4 6.4-7.4zM242.4 77.5h2.5v20h-2.5zM244.4 62.4v3.4c-.4.1-2.1.6-3.9.6-3.5 0-5.8-1.9-5.8-5v-9.7h-2.4v-3.5h2.4v-3.8h4.8v3.8h4.8v3.5h-4.8v7.9c0 2.4.8 3.1 2.8 3.1.7 0 1.7-.2 2.1-.3zM235.8 77.5h2.5v20h-2.5zM229.4 42.9v5.7h-4.3v-2.9c-.4-.1-1.8-.6-3-.6-2.8 0-3.9 1.5-3.9 2.8 0 1.7 1.3 2.5 2.8 2.9l2.4.6c3.3.9 7 2.3 7 7.2 0 4.5-2.9 7.6-9.4 7.6-2.5 0-5.1-.3-8.1-1.3v-6.3h4.3v3.1c.7.2 2.6.7 4.3.7 2.5 0 3.8-1.1 3.8-2.9 0-1.5-.8-2.6-3.9-3.4l-2-.6c-4.7-1.3-6.2-3.5-6.2-7.2 0-3.8 2.5-6.8 8.9-6.8 2.6.2 5.3.7 7.3 1.4zM226 83.6c3.9 0 6.6 2.8 6.6 7 0 5.1-3.5 7.3-6.8 7.3-3.7 0-6.6-2.7-6.6-7 .1-4.6 3.1-7.3 6.8-7.3zm4.1 7.1c0-2.3-1.2-5.2-4.1-5.2s-4.2 2.7-4.2 5.3c0 3 1.7 5.3 4.2 5.3 2.3-.1 4.1-2.3 4.1-5.4zM213.2 80.3c-4.5 0-7.4 2.9-7.4 7.9 0 4.7 2.7 7.6 7.3 7.6 1.5 0 3-.3 4-.8l.5 2c-.9.4-2.7.9-5 .9-5.4 0-9.4-3.4-9.4-9.6 0-6 4-10 9.9-10 2.4 0 3.9.5 4.5.8l-.6 2c-.9-.5-2.3-.8-3.8-.8zM199.2 51.8c-2 0-3.6 1.1-3.6 3.8v6.8h2v3.5h-8.8v-3.5h1.9V51.6h-2.3v-3.5h6.5l.1 2.3h.1c.3-.5 1.9-2.7 5.5-2.7 4.5 0 6.9 3.2 6.9 7.1v7.7h2V66h-8.8v-3.5h1.9v-6.8c.2-2.5-1.2-3.9-3.4-3.9zM192.2 93.6c-1.8 4.7-3 7.1-4.7 8.6-1.2 1.1-2.4 1.5-3.1 1.6l-.6-2.1c.6-.2 1.4-.6 2.2-1.2.7-.5 1.5-1.5 2.1-2.8.1-.3.2-.5.2-.6 0-.2-.1-.3-.2-.7L183 83.8h2.7l3 8.1c.3.9.7 2 .9 2.8h.1c.2-.8.5-1.9.9-2.8l2.7-8h2.6l-3.7 9.7zM178.2 77.5h2.5v20h-2.5zM175.9 51.8c-2 0-3.6 1.1-3.6 3.8v6.8h2v3.5h-8.8v-3.5h2V51.6h-2.3v-3.5h6.5l.1 2.3h.1c.3-.5 1.9-2.7 5.5-2.7 4.5 0 6.9 3.2 6.9 7.1v7.7h2V66h-8.8v-3.5h2v-6.8c.1-2.5-1.3-3.9-3.6-3.9zM174.8 85.9c-1.8 0-3 1.3-3.3 3.2-.1.3-.1.7-.1 1.2v7.3h-2.5v-9.4c0-1.6 0-3-.1-4.3h2.2l.1 2.7h.1c.6-1.8 2.1-3 3.8-3 .3 0 .5 0 .7.1V86c-.3-.1-.6-.1-.9-.1zM163.1 58.1h-12.4c.1 2.8 2.3 4.6 5.7 4.6 2.9 0 4.7-.8 5.5-1.1v3.7c-.7.3-2.7 1.1-6.6 1.1-6.9 0-9.8-4.3-9.8-9.2 0-5.6 3.4-9.4 9-9.4 6.1-.1 8.6 4.5 8.6 10.3zm-12.4-3.3h7.3c0-2.5-1.4-3.9-3.6-3.9-2.3.1-3.5 1.5-3.7 3.9zM153.8 90.9c0-4.1 2.4-7.4 6.4-7.4 4.5 0 5.6 3.9 5.6 6.4 0 .5-.1.9-.1 1.2h-9.6c.1 3.4 2.2 4.7 4.7 4.7 1.8 0 2.9-.3 3.8-.7l.4 1.9c-.9.4-2.4.9-4.6.9-4.1-.1-6.6-2.8-6.6-7zm9.6-1.5c0-1.6-.7-4-3.5-4-2.5 0-3.6 2.3-3.8 4h7.3zM144.6 49.4c0 5.1-4 7.3-8.8 7.3h-3.6v5.7h2.4v3.5h-9.7v-3.5h2.3V45.6h-2.3v-3.5h10.9c5.8 0 8.8 3 8.8 7.3zm-5.1 0c0-2.2-1.4-3.9-4.2-3.9h-3.1v7.7h3.1c2.5.1 4.2-1.4 4.2-3.8zM141.3 93c.5 1.7 1.9 2.9 3.7 2.9 2.6 0 4.1-2.1 4.1-5.2 0-2.7-1.4-5.1-4.1-5.1-1.7 0-3.3 1.2-3.8 3-.1.3-.1.6-.1 1V92c0 .4.1.7.2 1zm-.1-6.9c.9-1.5 2.4-2.5 4.7-2.5 3.4 0 5.8 2.8 5.8 7 0 4.9-3.1 7.3-6.1 7.3-2 0-3.6-.8-4.6-2.6h-.1l-.1 2.3h-2.1c.1-.9.1-2.3.1-3.5V77.5h2.4v8.6zM127.3 86.6h7.4v2h-7.4v6.9h8.3v2.1h-10.7V78.5h10.3v2.1h-7.9z"></path>
    <path fill="#96BEE6" d="M91.7 78.4c-.1-.2-2.3-4-2.4-4.3-.2-.3-.3-.6-.3-.9 0-.4.2-.6.6-.9.3-.2.6-.4.9-.5 1.1-.6 1.4-1.3 1.4-2 0-.3 0-.6-.1-1 .1.3.4 1 .4 1.2.2.7.6 1.6.6 2.8 0 1.2-.1 1.5-.4 2.7-.4 1.5-.6 2-.7 2.9z"></path>
    <path fill="#065094" d="M86.4 55.3c1-1.3 2.3-2.9 2.8-2.9.2 0 .4.2.7.7.2.3.3.9.3 1.4 0 1.7-.6 3-1.5 4.3-.5-.5-1.3-1.3-2.6-2-.1 0-.3-.1-.3-.4-.1-.2.2-.5.6-1.1z"></path>
    <path fill="#FFFFFF" d="M87 90.3c0 .7-1.1 2.3-3.2 2.8-.3.1-1 .2-3.9.2-4.4 0-5.2-1.1-5.2-2 0-1.4 6.3-2.4 8.8-2.4 2.4.1 3.5.8 3.5 1.4z"></path>
    <path fill="#065094" d="M84.3 83.3c0-.6.5-1.5.5-2.3 0-1-1.2-1.3-2.1-1.4-1.5-.2-2.2-.2-2.5-.4-.1-.1-.1-.1-.1-.2 0-.3.3-.6.6-1.1.1-.1.2-.2.2-.3.1-.1.2-.1.3-.2.1-.1.2-.1.3-.2.6-.3 1.2-.4 1.7-.5.9-.1 1.8-.2 3-.2 1.3 0 2.4.2 2.9.3 1.2.2 1.4.7 1.4 1.3v.6c0 .6-.5.9-1.3 1-.2 0-.5.1-.6.1-.6.1-1.3.2-1.6 1-.6 1.6-1.6 2.9-2.3 2.9-.2-.1-.4-.2-.4-.4z"></path>
    <path fill="#FFFFFF" d="M81.2 77.3c-.1.1-.2.1-.3.2.2 0 .3-.1.3-.2z"></path>
    <path fill="#96BEE6" d="M79 102.1c.8-.9 1.5-1.5 1.9-1.5.3 0 .4.2.4.5 0 .8-.5 2.6-.6 3.8-.2 2.4.1 3.7.4 5.5-2.2 1.5-5.2 3.4-8.4 5.4 0-4.3-.1-6.9 2.8-9.9 1.2-1.4 2.4-2.6 3.5-3.8zM80.2 79.1c-.1-.1-.1-.1-.1-.2 0 .1.1.2.1.2z"></path>
    <path fill="#96BEE6" d="M74.6 67.7c.6-.1 1.3-.6 1.8-1.3.7-.9.8-1.6.8-2.5 0-.2 0-.4-.1-.6 0 0 0-.1-.1-.1-.1-.1-.2-.2-.3-.4.9.9 1.5 2.1 2.1 3.4 1.3 2.9 2.5 6 3.5 8.4.1.3.2.6.2.9 0 .6-.1.7-.4 1.1-.2.2-.4.3-.6.5-.1.1-.2.1-.3.2-.1.1-.2.1-.3.2-.1.1-.2.2-.2.3-.3.5-.6.8-.6 1.1 0 .1 0 .1.1.2-.4-.3-.6-.8-.6-1.2 0-.4.1-.6.1-1 0-.3-.1-.6-.1-.8-.6-2-1.6-4.4-2.2-6-.6-1.7-1.1-2.6-1.8-2.6-.4 0-.7.2-1 .2z"></path>
    <path fill="#96BEE6" d="M77 63.2l.1.1c-.1 0-.1 0-.1-.1z"></path>
    <path fill="#065094" d="M68.6 61.3c1-.6 1.8-.7 2.9-.7h.9c1.4 0 2.2.4 2.8.9.7.6 1.2 1 1.5 1.4.1.1.2.3.3.4l.1.1c.1.2.1.4.1.6 0 .9 0 1.6-.8 2.5-.5.7-1.3 1.2-1.8 1.3h-.2c-.2 0-.2-.1-.2-.2s.1-.2.3-.3c.5-.4.7-1.1.8-1.4 0-1-1.1-2.5-3.1-2.5-1.8 0-3.1 1.3-3.5 2.4.4.8.8 1.7 2.5 2.2.2.1.4.1.4.3 0 .3-.3.4-.9.4-1.9 0-3.1-.8-3.6-1.5-.5.1-1.1.3-1.8.3-.6 0-.9-.4-.9-.9 0-.3.1-.7.3-1.1.1-.2.2-.5.3-.6.3-.6.8-1.9 2.5-2.9.3-.3.8-.6 1.1-.7zM61.4 55.6c.2.3.4.6.4 1 0 .7-1.4.9-2.9 2.5-.7.7-1 1-1.4 1-.7 0-1.5-1.3-2-2.8-.5-1.4-.8-3.6-.8-4.8 0-.8.5-1.6.9-2.4.3-.6.9-1.2 1.5-1.2.3 0 .8.5 1.1 1.1.9 1.8 1.6 3.1 3.2 5.6z"></path>
    <path fill="#065094" d="M83.6 89c-2.5 0-8.8 1-8.8 2.4 0 .9.8 2 5.2 2 2.9 0 3.6-.2 3.9-.2 2.1-.5 3.2-2.1 3.2-2.8-.1-.7-1.2-1.4-3.5-1.4zM55.2 77.7c0-.4.1-.8.5-.8.3 0 .4.2.6.6.2.6.7 1.7 1 2.3.6 1.3 1.9 1.7 3.4 2.1 1.1.3 3.1 1 3.9 1.3.7.2 1 .3 1.4.3.6 0 .9-1.3 1.1-2.6.1-1.1.3-1.8.7-1.8.4 0 .5.5.6.9.1 3.6-.1 3.9 2.1 6.6 1.6 1.9 2.5 2 3.8 2.2h.6c.9 0 2.6-.4 3.6-.7.6-.1 1.8-.4 2.3-.5 1.6-.4 2.1-.9 3-2.2.2-.4.5-.5.8-.5.3 0 .5.3.7.9 0 .1.2.4.2.6.3.8.6 1.4 1.5 1.6.2.1.8.2 1 .3.2.1.5.1.7.1.4 0 .8-.2 1.1-.6.4-.5 1.2-1.5 1.7-2.2.7-.9 1.3-2.1 1.3-3.6v-.8c0-1-.3-1.8-.5-2.3-.1-.2-.1-.2-.2-.5.1-.8.2-1.4.7-2.9.3-1.2.4-1.6.4-2.7 0-1.2-.4-2.1-.6-2.8-.1-.2-.3-.9-.4-1.2-.2-.5-.6-.8-1-.9-.2 0-.4-.1-.5-.1-.4-.1-.6-.1-.6-.3 0-.1 0-.1.1-.2.1-.2.3-.7.3-1.3 0-1.2-.9-2.1-2.2-2.1-1.1 0-1.6.5-2.1 1 .7 1.5 1.4 3.3 2.7 3.3h.3c.1 0 .2.1.2.2 0 .3-.9.4-1.9.4-.4 0-.8-.2-1.1-.7-.3-.6-.9-1.7-1.2-2.2-.9-.9-1.2-1.5-1.2-1.9 0-.8.3-1.3.8-1.8.4-.4 1.1-1 2.5-1h.3c.9 0 1.6.6 2.4 1.4.7.7.9 1.7.9 2.4v.3c0 .3.1.7.4.7.4 0 .6-.4.6-.7.1-.5.3-1.1.3-1.5 0-.9-.7-1.8-1.2-2.5-.3-.4-.8-1-1.2-1.3.8-1.1 1.7-2.6 1.7-5.1 0-1-.4-2-.7-2.7-.4-.9-1-1.9-2.1-1.9-1.9 0-3.9 1-6.3 2.2-.1.1-.3.2-.3.4 0 .3.4.6.4.8 0 .1 0 .2-.2.2-.4 0-.8-.4-2.4-.9-3.2-1-9.4-1.7-13.5-1.7-2.3 0-2.7.2-3.2.2-.2 0-.2-.1-.3-.2-.2-.3-1.8-2.3-3-3.5-.7-.7-1.2-1.3-2.3-1.3-1 0-2 1-2.3 1.3-1.8 1.8-2.5 2.4-2.5 5.3 0 4.2.7 5.3.7 5.9 0 .2-.1.4-.4.4-.3 0-.4-.2-.7-.6-.1-.2-.3-.3-.4-.3-.2 0-.4.2-.4.3-2.6 3.2-7.5 10.8-7.5 14.5 0 2 .7 3.6.7 6 0 3.5-2.4 5.2-2.8 8.8-3.3-5.9-5.4-12.6-5.4-20.4V42c3.1-1 15.8-5.9 36-5.9s32.9 4.9 36 5.9v25.7c0 17.6-10.5 30-23.1 39.4-.5-.1-2.1-.4-3.2-2.5-.9-1.7-1-3.1-1-3.5 0-.4-.1-.5-.4-.5-.4 0-1.1.6-1.9 1.5-1.1 1.1-2.3 2.4-3.5 3.7-2.9 3.1-2.8 5.6-2.8 9.9-4.8-2.9-9.7-6.1-14.3-9.6-7.1-5.7-8.2-7.8-8.3-12v-1.7c0-2.8.6-4.3 1.7-5.8.5-.7 1-1.4 1.5-2 1-1.4 1.5-2.4 1.8-4.9-.1-.6 0-1.6.1-2z"></path>
    <path fill="#96BEE6" d="M73 85.6v1.3c0 1.2.6 1.7 1.1 1.9-1.3-.2-2.2-.3-3.8-2.2-2.2-2.7-2-3-2.1-6.6 0-.4-.2-.9-.6-.9-.4 0-.5.8-.7 1.8-.2 1.3-.4 2.6-1.1 2.6-.4 0-.7-.1-1.4-.3-.8-.3-2.8-.9-3.9-1.3-1.4-.5-2.8-.9-3.4-2.1-.3-.6-.7-1.7-1-2.3-.2-.4-.3-.6-.6-.6-.4 0-.5.5-.5.8 0 .4-.2 1.3-.2 1.9-.2 2.5-.7 3.6-1.8 4.9-.5.6-.9 1.3-1.5 2-1.1 1.5-1.8 3-1.7 5.8V94c-.3-1.8-1.1-5.1-1.2-9.7-.1-1.8.5-2.6 1.7-4.1.4-.5.9-1.2 1.4-1.8 1.6-2 1.9-2.8 1.9-5.6 0-3.2-.4-5.1-.4-6.2 0-1.1.3-1.8 1-1.8 1.4 0 1.3 2.9 2.7 5.3 1.2 2 3.6 2.2 6.6 2.6.8.1 4.6.6 5.4.8 2.7.4 3 .9 3.8 3.1.3.7.5 1.6.7 2.2.4 1.2.5 1.7.5 2.2 0 .5.1.6-.1 1.3-.2.4-.3 1-.5 1.4-.2.6-.3 1.3-.3 1.9z"></path>
    <path fill="#FFFFFF" d="M88.7 58.9c.9-1.4 1.5-2.6 1.5-4.3 0-.5-.2-1.1-.3-1.4-.3-.6-.4-.7-.7-.7-.5 0-1.8 1.6-2.8 2.9-.4.6-.6.9-.6 1.2 0 .2.2.3.3.4 1.2.6 2.1 1.5 2.6 1.9zm-21.6 8.2c.5.7 1.7 1.5 3.6 1.5.6 0 .9-.1.9-.4 0-.2-.2-.2-.4-.3-1.7-.5-2.1-1.4-2.5-2.2.3-1 1.7-2.4 3.5-2.4 2 0 3.1 1.5 3.1 2.5-.1.4-.4 1.1-.8 1.4-.1.1-.3.2-.3.3 0 .1 0 .2.2.2h.2c.3 0 .6-.2.9-.2.7 0 1.2.9 1.8 2.6.6 1.6 1.6 4 2.2 6 .1.2.1.5.1.8 0 .4-.1.6-.1 1s.2.9.6 1.2c.2.2 1 .2 2.5.4.9.1 2.1.4 2.1 1.4 0 .8-.5 1.7-.5 2.3 0 .2.2.3.3.3.7 0 1.7-1.2 2.3-2.9.3-.8 1-.9 1.6-1 .1 0 .4-.1.6-.1.8-.2 1.3-.5 1.3-1v-.6c0-.6-.2-1.1-1.4-1.3-.5-.1-1.6-.3-2.9-.3-1.2 0-2.1.1-3 .2-.4.1-1.1.2-1.7.5.2-.2.4-.3.6-.5.3-.3.4-.5.4-1.1 0-.2-.1-.6-.2-.9-1-2.4-2.2-5.6-3.5-8.4-.6-1.3-1.2-2.5-2.1-3.4-.3-.4-.8-.8-1.5-1.4-.6-.5-1.3-.9-2.8-.9h-.9c-1.2 0-1.9.1-2.9.7-.3.2-.8.5-1 .6-1.8 1-2.2 2.3-2.5 2.9l-.3.6c-.2.4-.3.8-.3 1.1 0 .5.3.9.9.9.8.2 1.4 0 1.9-.1zM54.7 52.5c0 1.2.3 3.4.8 4.8.5 1.5 1.3 2.8 2 2.8.4 0 .8-.3 1.4-1 1.5-1.6 2.9-1.9 2.9-2.5 0-.3-.2-.6-.4-1-1.6-2.5-2.2-3.8-3.2-5.6-.3-.7-.8-1.1-1.1-1.1-.5 0-1.1.6-1.5 1.2-.5.8-.9 1.6-.9 2.4zm17.9-16.4c-20.2 0-32.9 4.9-36 5.9v25.7c0 7.7 2 14.5 5.4 20.4.3-3.6 2.8-5.2 2.8-8.8 0-2.4-.7-4-.7-6 0-3.7 5-11.3 7.6-14.4.1-.1.2-.3.4-.3s.3.1.4.3c.3.4.4.6.7.6.3 0 .4-.2.4-.4 0-.7-.7-1.7-.7-5.9 0-2.9.7-3.6 2.5-5.3.3-.3 1.3-1.3 2.3-1.3 1.1 0 1.6.6 2.3 1.3 1.1 1.2 2.7 3.2 3 3.5.1.1.1.2.3.2.5 0 1-.2 3.2-.2 4.1 0 10.3.7 13.5 1.7 1.7.5 2 .9 2.4.9.2 0 .2-.1.2-.2 0-.2-.4-.5-.4-.8 0-.2.2-.3.3-.4 2.4-1.3 4.4-2.2 6.3-2.2 1.1 0 1.6.9 2.1 1.9.4.7.7 1.7.7 2.7 0 2.5-1 4.1-1.7 5.1.4.4.9 1 1.2 1.3.6.7 1.2 1.6 1.2 2.5 0 .4-.2 1-.3 1.5-.1.2-.2.7-.6.7-.3 0-.4-.4-.4-.7v-.3c0-.7-.2-1.7-.9-2.4-.8-.8-1.5-1.4-2.4-1.4h-.3c-1.5 0-2.1.7-2.5 1-.5.4-.8 1-.8 1.8 0 .5.3 1 .7 1.8.2.5.8 1.6 1.2 2.2.3.5.7.7 1.1.7 1 0 1.9-.1 1.9-.4 0-.1-.1-.2-.2-.2h-.3c-1.3 0-2.1-1.7-2.7-3.3.5-.5 1.1-1 2.1-1 1.3 0 2.2.9 2.2 2.1 0 .6-.2 1.1-.3 1.3-.1.1-.1.2-.1.2 0 .2.2.2.6.3.1 0 .4.1.5.1.4.1.8.4 1 .9.1.3.1.7.1 1 0 .8-.3 1.5-1.4 2-.2.1-.6.3-.9.5-.5.3-.6.5-.6.9 0 .3.1.6.3.9.2.3 2.3 4 2.4 4.3.2.3.2.3.2.5.2.5.5 1.4.5 2.3v.8c0 1.5-.6 2.7-1.3 3.6-.5.7-1.2 1.7-1.7 2.2-.3.3-.6.6-1.1.6-.2 0-.4-.1-.7-.1-.2-.1-.8-.2-1-.3-.9-.2-1.2-.8-1.5-1.6 0-.1-.2-.5-.2-.6-.2-.6-.3-.9-.7-.9-.2 0-.5.2-.8.5-.9 1.3-1.4 1.8-3 2.2-.6.1-1.7.4-2.3.5-.9.2-2.6.7-3.6.7h-.6c-.5-.1-1.1-.7-1.1-1.9v-1.3c0-.6.1-1.3.4-2 .2-.3.3-1 .5-1.4.3-.7.1-.8.1-1.3s-.2-1-.5-2.2c-.2-.6-.5-1.5-.7-2.2-.8-2.2-1.1-2.8-3.8-3.1-.9-.1-4.6-.6-5.4-.8-3-.4-5.4-.6-6.6-2.6-1.5-2.4-1.3-5.3-2.7-5.3-.7 0-1 .8-1 1.8 0 1.2.4 3 .4 6.2 0 2.8-.3 3.6-1.9 5.6-.4.5-1 1.3-1.4 1.8-1.2 1.5-1.8 2.4-1.7 4.1.2 4.6.9 7.9 1.2 9.7.1 4.2 1.2 6.3 8.3 12 4.6 3.6 9.5 6.8 14.3 9.6 3.3-2 6.2-3.8 8.4-5.4-.3-1.8-.6-3.1-.4-5.5.1-1.1.6-3 .6-3.8 0 .4.2 1.8 1 3.5 1.1 2.1 2.7 2.4 3.2 2.5 12.6-9.4 23.1-21.8 23.1-39.4V41.7c-2.7-.7-15.4-5.6-35.6-5.6zM33.7 40c8-3 20.2-6.8 39-6.8 18.9 0 31.9 4.1 39 6.8v27.8c0 26.5-22.6 41.8-39 51.4-17.2-10.2-39-25.1-39-51.4V40z"></path>
    <a xlink:href="http://www.psu.edu" target="_blank" tabindex="0">
      <path class="hoverfill" d="M111.6 40v27.8c0 26.5-22.6 41.8-39 51.4-17.2-10.2-39-25.1-39-51.4V40c8-3 20.2-6.8 39-6.8 19 .1 32 4.2 39 6.8zM83.8 93.1c2.1-.5 3.2-2.1 3.2-2.8 0-.6-1.1-1.3-3.4-1.3-2.5 0-8.8 1-8.8 2.4 0 .9.8 2 5.2 2 2.8 0 3.5-.2 3.8-.3z"></path>
    </a>
    <a xlink:href="http://www.psu.edu" target="_blank" tabindex="0">
      <path class="hoverfill" d="M118 36h305v36H118z"></path>
    </a>
    <a xlink:href="http://www.science.psu.edu" target="_blank" tabindex="0">
      <path class="hoverfill" d="M118 71h305v37H118z"></path>
    </a>
  </svg>