<svg xmlns="http://www.w3.org/2000/svg" viewBox="0 0 105 105"><defs><style>.cls-1{fill:#bc204b;}</style></defs><g id="Layer_1" data-name="Layer 1"><path class="cls-1" d="M52.5,2.13a50,50,0,1,0,50,50A50.06,50.06,0,0,0,52.5,2.13ZM74.4,65.78A5.82,5.82,0,0,1,66.18,74L52.5,60.33,38.82,74a5.82,5.82,0,1,1-8.22-8.23L44.27,52.1,30.6,38.42a5.77,5.77,0,0,1,4.11-9.88,5.84,5.84,0,0,1,4.11,1.66L52.5,43.88,66.18,30.2a5.84,5.84,0,0,1,4.11-1.66h0a5.74,5.74,0,0,1,5.82,5.77,5.78,5.78,0,0,1-1.71,4.11L60.73,52.1Z"/></g></svg>